<svg xmlns="http://www.w3.org/2000/svg" xmlns:xlink="http://www.w3.org/1999/xlink" width="40" zoomAndPan="magnify" viewBox="0 0 30 30.000001" height="40" preserveAspectRatio="xMidYMid meet" version="1.0"><defs><clipPath id="a069804b21"><path d="M 1.453125 0.859375 L 28.546875 0.859375 L 28.546875 28.265625 L 1.453125 28.265625 Z M 1.453125 0.859375 " clip-rule="nonzero"/></clipPath><clipPath id="f3f2749277"><path d="M 5.808594 0.859375 L 24.191406 0.859375 C 26.59375 0.859375 28.546875 2.808594 28.546875 5.214844 L 28.546875 23.816406 C 28.546875 26.222656 26.59375 28.171875 24.191406 28.171875 L 5.808594 28.171875 C 3.40625 28.171875 1.453125 26.222656 1.453125 23.816406 L 1.453125 5.214844 C 1.453125 2.808594 3.40625 0.859375 5.808594 0.859375 Z M 5.808594 0.859375 " clip-rule="nonzero"/></clipPath><clipPath id="0f9a98048e"><path d="M 7 10 L 9 10 L 9 23.714844 L 7 23.714844 Z M 7 10 " clip-rule="nonzero"/></clipPath><clipPath id="585459b890"><path d="M 8 10 L 10 10 L 10 23.714844 L 8 23.714844 Z M 8 10 " clip-rule="nonzero"/></clipPath><clipPath id="fd13457d4f"><path d="M 9 10 L 11 10 L 11 23.714844 L 9 23.714844 Z M 9 10 " clip-rule="nonzero"/></clipPath><clipPath id="eacb304f4a"><path d="M 7 6 L 11.839844 6 L 11.839844 11 L 7 11 Z M 7 6 " clip-rule="nonzero"/></clipPath><clipPath id="3885292d37"><path d="M 11.882812 12.652344 L 23.75 12.652344 L 23.75 23.695312 L 11.882812 23.695312 Z M 11.882812 12.652344 " clip-rule="nonzero"/></clipPath></defs><g clip-path="url(#a069804b21)"><g clip-path="url(#f3f2749277)"><path fill="#000000" d="M 1.453125 0.859375 L 28.546875 0.859375 L 28.546875 28.160156 L 1.453125 28.160156 Z M 1.453125 0.859375 " fill-opacity="1" fill-rule="nonzero"/></g></g><g clip-path="url(#0f9a98048e)"><path fill="#ffffff" d="M 7.628906 23.6875 C 7.398438 23.6875 7.207031 23.5 7.207031 23.265625 L 7.207031 11.113281 C 7.207031 10.882812 7.394531 10.695312 7.628906 10.695312 C 7.859375 10.695312 8.046875 10.878906 8.046875 11.113281 L 8.046875 23.265625 C 8.046875 23.496094 7.863281 23.6875 7.628906 23.6875 Z M 7.628906 23.6875 " fill-opacity="1" fill-rule="nonzero"/></g><g clip-path="url(#585459b890)"><path fill="#ffffff" d="M 9.015625 23.6875 C 8.789062 23.6875 8.597656 23.5 8.597656 23.265625 L 8.597656 11.113281 C 8.597656 10.882812 8.78125 10.695312 9.015625 10.695312 C 9.246094 10.695312 9.4375 10.878906 9.4375 11.113281 L 9.4375 23.265625 C 9.4375 23.496094 9.253906 23.6875 9.015625 23.6875 Z M 9.015625 23.6875 " fill-opacity="1" fill-rule="nonzero"/></g><g clip-path="url(#fd13457d4f)"><path fill="#ffffff" d="M 10.414062 23.6875 C 10.183594 23.6875 9.992188 23.5 9.992188 23.265625 L 9.992188 11.113281 C 9.992188 10.882812 10.175781 10.695312 10.414062 10.695312 C 10.640625 10.695312 10.832031 10.878906 10.832031 11.113281 L 10.832031 23.265625 C 10.832031 23.496094 10.648438 23.6875 10.414062 23.6875 Z M 10.414062 23.6875 " fill-opacity="1" fill-rule="nonzero"/></g><g clip-path="url(#eacb304f4a)"><path fill="#02bbff" d="M 10.472656 6.761719 C 10.660156 6.949219 10.804688 7.164062 10.90625 7.410156 C 11.007812 7.652344 11.058594 7.910156 11.058594 8.175781 C 11.058594 8.441406 11.007812 8.695312 10.90625 8.941406 C 10.804688 9.183594 10.660156 9.402344 10.472656 9.589844 C 10.285156 9.777344 10.066406 9.921875 9.824219 10.023438 C 9.578125 10.125 9.324219 10.175781 9.058594 10.175781 C 8.792969 10.175781 8.535156 10.125 8.292969 10.023438 C 8.046875 9.921875 7.832031 9.777344 7.644531 9.589844 C 7.457031 9.402344 7.3125 9.183594 7.210938 8.941406 C 7.109375 8.695312 7.058594 8.441406 7.058594 8.175781 C 7.058594 7.910156 7.109375 7.652344 7.210938 7.410156 C 7.3125 7.164062 7.457031 6.949219 7.644531 6.761719 C 7.832031 6.574219 8.046875 6.429688 8.292969 6.328125 C 8.535156 6.226562 8.792969 6.175781 9.058594 6.175781 C 9.324219 6.175781 9.578125 6.226562 9.824219 6.328125 C 10.066406 6.429688 10.285156 6.574219 10.472656 6.761719 Z M 10.472656 6.761719 " fill-opacity="1" fill-rule="nonzero"/></g><g clip-path="url(#3885292d37)"><path fill="#00c2ff" d="M 17.210938 12.660156 C 15.59375 12.660156 14.238281 13.195312 13.285156 14.210938 C 12.367188 15.1875 11.882812 16.539062 11.882812 18.125 L 11.882812 18.15625 C 11.882812 19.746094 12.371094 21.113281 13.296875 22.113281 C 14.265625 23.15625 15.636719 23.710938 17.261719 23.710938 L 21.035156 23.710938 C 21.269531 23.710938 21.460938 23.515625 21.460938 23.28125 L 21.460938 18.058594 C 21.460938 17.824219 21.269531 17.632812 21.035156 17.632812 L 17.554688 17.632812 C 17.308594 17.632812 17.109375 17.832031 17.109375 18.078125 L 17.109375 19.132812 C 17.109375 19.378906 17.308594 19.578125 17.554688 19.578125 L 18.144531 19.578125 L 18.144531 19.964844 C 18.144531 20.199219 17.953125 20.390625 17.71875 20.390625 L 17.171875 20.390625 C 15.894531 20.390625 15.164062 19.59375 15.164062 18.199219 L 15.164062 18.167969 C 15.164062 16.945312 15.777344 16.125 16.804688 15.976562 C 16.914062 15.964844 17.027344 15.957031 17.136719 15.949219 L 17.148438 15.949219 C 17.15625 15.949219 17.160156 15.949219 17.167969 15.949219 L 17.175781 15.949219 L 17.4375 15.941406 L 20.105469 15.941406 C 21.460938 15.941406 22.691406 15.136719 23.234375 13.894531 L 23.773438 12.660156 L 17.210938 12.660156 " fill-opacity="1" fill-rule="nonzero"/></g></svg>
